<?xml version="1.0"?><svg xmlns="http://www.w3.org/2000/svg"  viewBox="0 0 50 50" width="50px" height="50px">    <path d="M25,3C12.869,3,3,12.869,3,25s9.869,22,22,22s22-9.869,22-22S37.131,3,25,3z M10,25c0-2.869,0.824-5.543,2.226-7.824 L20.05,25l-7.824,7.824C10.824,30.543,10,27.869,10,25z M25,40c-2.869,0-5.543-0.824-7.824-2.226L25,29.95l7.824,7.824 C30.543,39.176,27.869,40,25,40z M17.176,12.226C19.457,10.824,22.131,10,25,10s5.543,0.824,7.824,2.226L25,20.05L17.176,12.226z M29.95,25l7.824-7.824C39.176,19.457,40,22.131,40,25s-0.824,5.543-2.226,7.824L29.95,25z"/></svg>